<?xml version="1.0" encoding="UTF-8" standalone="no"?>
<!DOCTYPE svg PUBLIC "-//W3C//DTD SVG 1.1//EN" "http://www.w3.org/Graphics/SVG/1.1/DTD/svg11.dtd">
<svg width="100%" height="100%" viewBox="0 0 4000 4000" version="1.1" xmlns="http://www.w3.org/2000/svg" xmlns:xlink="http://www.w3.org/1999/xlink" xml:space="preserve" xmlns:serif="http://www.serif.com/" style="fill-rule:evenodd;clip-rule:evenodd;stroke-linejoin:round;stroke-miterlimit:2;">
    <g id="Layer1">
        <path d="M3511.94,1851.46C3210.98,1673.94 3233.88,1673.66 2807.39,1578.09C1996.76,1396.42 713.82,1641.43 400.273,1946.81C335.963,2009.45 429.245,2063.89 500.413,2116.33C598.915,2188.91 798.497,2396.55 1978.8,2395.04C2468.93,2394.41 3217.52,2388.94 3506.22,1848.36" style="fill:rgb(212,211,211);"/>
        <path d="M3496.02,1814.32C2749.99,1041.4 2729.31,1066.07 1936.79,341.209C1676.86,660.229 1533.37,724.136 1102.37,1131.81C705.62,1507.1 723.597,1521.31 396.086,1960.66C689.917,1753.76 678.564,1825.42 1065.84,1694.47C1349.84,1598.44 2546.5,1366.36 3496.9,1811.35" style="fill:rgb(237,236,236);"/>
        <path d="M3527.85,1840.85C3700.63,3436 3699.82,3446.79 3689.31,3586.66C3674.08,3789.42 3573.4,3804.89 3490.35,3808.03C481.216,3921.85 463.534,3901.62 353.244,3811.89C235.186,3715.83 329.059,2559.23 361.058,2004.65C741.731,2348.2 939.17,2371.15 1661.33,2374.8C3314.55,2383.15 3140.91,2169.15 3527.85,1840.85Z" style="fill:rgb(236,236,236);"/>
        <path d="M3543.49,1839.15C3716.55,3436.91 3715.52,3447.74 3705,3587.84C3696.9,3695.6 3664.83,3753.08 3625.02,3784.54C3584.75,3816.37 3535.58,3822.06 3490.95,3823.75C1684.64,3892.07 955.751,3912.08 637.814,3897.79C418.889,3887.95 388.904,3861.18 343.317,3824.09C330.984,3814.05 319.834,3794.48 311.254,3765.91C293.751,3707.63 284.41,3608.59 281.097,3484.4C270.208,3076.1 322.936,2392.3 345.355,2003.74C345.704,1997.7 349.487,1992.39 355.085,1990.1C360.684,1987.8 367.104,1988.92 371.596,1992.97C749.125,2333.69 945.215,2355.45 1661.41,2359.07C2484.2,2363.23 2852.46,2312.74 3063.09,2219.68C3166.7,2173.9 3231.51,2117.75 3294.15,2053.02C3358.43,1986.59 3420.47,1911.33 3517.68,1828.86C3522.12,1825.09 3528.27,1824.08 3533.68,1826.24C3539.09,1828.4 3542.86,1833.37 3543.49,1839.15ZM3515.45,1872.42C3431.88,1946.46 3375.28,2014.41 3316.75,2074.89C3251.46,2142.36 3183.8,2200.74 3075.8,2248.46C2863.22,2342.38 2491.68,2394.72 1661.25,2390.53C948.669,2386.92 743.067,2363.74 374.856,2038.07C351.542,2430.59 301.972,3087.16 312.544,3483.56C315.308,3587.22 322.139,3672.91 334.794,3731.01C342.293,3765.45 350.725,3789.56 363.171,3799.68C405.817,3834.38 434.425,3857.16 639.227,3866.36C956.874,3880.64 1685.1,3860.57 3489.76,3792.31C3528.17,3790.86 3570.86,3787.25 3605.51,3759.86C3640.61,3732.12 3666.49,3680.49 3673.63,3585.48C3684.05,3446.72 3684.7,3435.23 3515.45,1872.42Z" style="fill:rgb(237,236,236);"/>
        <g transform="matrix(3.16443,-0.0344495,0.0344495,3.16443,3642.78,-5517.07)">
            <text x="-1064.37px" y="2594.16px" style="font-family:'FiraCode-Light', 'Fira Code', monospace;font-weight:300;font-size:55.365px;fill:rgb(225,224,224);">0a180a0e70726f6a6563745f617574</text>
            <text x="-1064.37px" y="2649.53px" style="font-family:'FiraCode-Light', 'Fira Code', monospace;font-weight:300;font-size:55.365px;fill:rgb(225,224,224);">686f721206417277616c6b0a1c0a0c</text>
            <text x="-1064.37px" y="2704.89px" style="font-family:'FiraCode-Light', 'Fira Code', monospace;font-weight:300;font-size:55.365px;fill:rgb(225,224,224);">70726f6a6563745f6e616d65120c7a</text>
            <text x="-1064.37px" y="2760.26px" style="font-family:'FiraCode-Light', 'Fira Code', monospace;font-weight:300;font-size:55.365px;fill:rgb(225,224,224);">69672d70726f746f6275660a170a10</text>
            <text x="-1064.37px" y="2815.62px" style="font-family:'FiraCode-Light', 'Fira Code', monospace;font-weight:300;font-size:55.365px;fill:rgb(225,224,224);">70726f6a6563745f6c616e67756167</text>
            <g transform="matrix(55.3647,0,0,55.3647,-665.738,2870.99)">
            </g>
            <text x="-1064.37px" y="2870.99px" style="font-family:'FiraCode-Light', 'Fira Code', monospace;font-weight:300;font-size:55.365px;fill:rgb(225,224,224);">6512035a6967</text>
        </g>
        <path d="M1924.57,323.789C1930.32,317.29 1940.27,316.687 1946.77,322.443C1953.27,328.199 1953.87,338.148 1948.11,344.646C1488.93,863.096 1062.07,1017.14 370.36,1990.84C365.333,1997.92 355.506,1999.58 348.429,1994.56C341.352,1989.53 339.688,1979.7 344.715,1972.62C1037.44,997.491 1464.7,843.002 1924.57,323.789Z"/>
        <path d="M1935.86,334.762C1929.7,328.642 1929.67,318.675 1935.8,312.518C1941.91,306.362 1951.88,306.332 1958.04,312.453C2373.48,725.436 2396.06,698.273 2828.23,1094.18C2844.46,1109.05 2843.93,1109.14 3545.2,1821.2C3551.29,1827.39 3551.22,1837.35 3545.03,1843.44C3538.85,1849.54 3528.88,1849.46 3522.79,1843.27C2822.63,1132.34 2823.19,1132.22 2806.98,1117.37C2374.34,721.035 2351.76,748.198 1935.86,334.762Z"/>
        <path d="M3523.5,1815.81C3531.47,1819.27 3535.13,1828.54 3531.67,1836.5C3528.22,1844.46 3518.94,1848.12 3510.98,1844.67C2578.52,1440.04 1500,1594.59 1218.34,1671.42C539.918,1856.47 543.693,1876.52 365.11,2025.28C358.44,2030.84 348.514,2029.93 342.958,2023.26C337.402,2016.59 338.306,2006.66 344.976,2001.11C526.134,1850.2 521.857,1828.79 1210.06,1641.07C1494.28,1563.55 2582.59,1407.51 3523.5,1815.81Z"/>
        <path d="M1714.67,1069.29C1749.75,1074.1 1982.54,1046.87 2157.63,1347.53C2211.32,1439.72 2288.04,1698.99 2276.93,2089.92C2270.13,2328.9 2280.62,2351.82 2250.38,2356.06C2224.44,2359.7 2240.59,2364.75 1938.96,2375.92C1920.22,2376.61 1463.27,2377.4 1454.24,2372.07C1426.94,2355.97 1345.07,2386.66 1342.38,2355.34C1337.4,2297.31 1384.07,2143.21 1272.5,2162.93C1164.68,2181.98 861.153,2267.67 651.244,2113.67C608.209,2082.1 459.992,1861.74 589.105,1668.7C768.404,1400.63 925.734,1559.31 982.259,1450.62C1144.67,1138.34 1118.56,1145.78 1332.13,1102C1391.97,1089.73 1632.59,1052.18 1653.14,1052.93C1749.08,1056.43 1556.8,1019.68 1714.67,1069.29Z" style="fill:rgb(250,164,48);"/>
        <path d="M1523.08,2163.89C1528.65,2178.51 1576.77,2304.79 1575.54,2352.3C1574.79,2381.16 1400.98,2369.82 1362.77,2357.7C1322.85,2345.03 1334.46,2158.83 1363.19,2146.5C1427.48,2118.9 1511.79,2161.6 1523.32,2167.44" style="fill:rgb(231,79,1);"/>
        <path d="M333.838,2005.95C327.88,2000.14 327.466,1990.6 333.032,1984.29C338.775,1977.78 348.723,1977.16 355.233,1982.9C763.871,2343.37 1146.43,2359.29 2079.5,2354.7C2576.36,2352.26 2866.88,2290.97 3068.19,2194.43C3269.05,2098.11 3380.76,1966.79 3520.78,1825.45C3526.89,1819.28 3536.86,1819.23 3543.03,1825.34C3543.51,1825.82 3543.96,1826.32 3544.37,1826.85C3548.13,1829.36 3550.79,1833.46 3551.29,1838.31C3656.91,2852.74 3711.12,3260.01 3726.88,3457.31C3737.66,3592.22 3730.63,3631.38 3710.29,3695.55C3701.94,3721.87 3690.26,3761.67 3602.45,3795.57C3521.91,3826.66 3372.23,3853.41 3087.83,3858.63C2564.14,3868.25 2566.27,3882.94 2042.87,3896.47C1271.74,3916.39 837.577,3949.79 594.708,3930C468.143,3919.69 391.843,3894.22 345.987,3847.44C299.735,3800.25 283.344,3730.67 280.216,3629.14C258.034,2909.2 321.097,2155.15 333.838,2005.95ZM3522.78,1868.24C3389.37,2004.23 3276.52,2129.42 3081.79,2222.8C2877.71,2320.66 2583.35,2383.68 2079.66,2386.16C1156.84,2390.7 766.479,2372.37 363.251,2031.4C347.158,2222.83 290.489,2941.07 311.658,3628.17C314.474,3719.57 326.811,3782.94 368.452,3825.42C410.489,3868.3 481.236,3889.2 597.262,3898.65C839.568,3918.39 1272.72,3884.9 2042.06,3865.02C2565.58,3851.49 2563.44,3836.8 3087.26,3827.18C3365.66,3822.07 3512.28,3796.65 3591.12,3766.22C3662.71,3738.58 3673.5,3707.5 3680.3,3686.05C3699.62,3625.12 3705.75,3587.9 3695.52,3459.81C3679.9,3264.35 3626.52,2862.68 3522.78,1868.24Z"/>
        <path d="M1891.08,1889.89C1875.16,1903.06 1750.7,2005.99 1787.2,2126.21C1798.45,2163.24 1851.98,2142.94 1873.48,2107.62C1956.04,1971.92 1907.66,1920.82 1890.14,1886.48" style="fill:rgb(231,79,1);"/>
        <g transform="matrix(1,0,0,1,100.796,-127.321)">
            <path d="M2185.48,2483.23C2185.22,2491.91 2177.97,2498.74 2169.29,2498.48C2160.61,2498.22 2153.78,2490.96 2154.04,2482.29C2162.25,2208.44 2172.42,1924.54 2118.45,1693.24C2083.16,1541.96 2020.42,1413.38 1910.29,1326.17C1791.89,1232.43 1619.22,1186.95 1369.09,1210.45C1155.73,1230.51 1066.75,1303.96 1045.74,1321.48C1027.33,1336.82 1006.17,1367.01 984.918,1402.14C933.205,1487.65 882.433,1602.36 874.529,1620.2C872.183,1625.5 867.116,1629.08 861.339,1629.52C858.15,1629.76 781.247,1622.49 693.416,1644.6C608.35,1666.02 512.38,1715.35 466.889,1828.71C461.383,1842.43 447.507,1903.06 449.447,1977.39C451.385,2051.66 469.114,2139.8 528.308,2208.43C608.292,2301.17 762.716,2356.61 1050.56,2300.04C1302.13,2250.6 1302.98,2248.63 1557.67,2280.33C1575.33,2282.53 1697.24,2298.54 1769.94,2214.03C1808.12,2169.65 1810.15,2118.69 1801.72,2074.88C1792.65,2027.77 1771.71,1988.29 1765.9,1970.91C1764.46,1966.6 1764.95,1961.88 1767.26,1957.95C1794.78,1911.11 1812.47,1881.67 1814.59,1851.01C1816.67,1820.95 1803.18,1790.42 1771.99,1741.01C1767.35,1733.66 1769.55,1723.94 1776.89,1719.31C1784.23,1714.68 1793.95,1716.87 1798.59,1724.21C1834.92,1781.77 1848.4,1818.18 1845.97,1853.19C1843.69,1886.17 1826.77,1918.52 1798.15,1967.46C1806.19,1987.8 1824.2,2025.24 1832.61,2068.93C1842.66,2121.14 1839.29,2181.65 1793.79,2234.55C1711.39,2330.33 1573.8,2314.03 1553.79,2311.54C1304.09,2280.47 1303.26,2282.43 1056.63,2330.91C751.821,2390.82 589.184,2327.18 504.486,2228.97C440.169,2154.4 420.106,2058.91 418,1978.21C415.895,1897.57 431.721,1831.88 437.694,1817C487.634,1692.55 592.35,1637.61 685.734,1614.1C759.946,1595.41 826.572,1596.8 850.074,1597.78C865.435,1563.46 911.358,1462.99 958.001,1385.87C981.437,1347.12 1005.3,1314.23 1025.6,1297.31C1047.75,1278.85 1141.19,1200.28 1366.14,1179.14C1626.84,1154.63 1806.42,1203.81 1929.81,1301.51C2045.35,1392.99 2112.06,1527.39 2149.09,1686.09C2203.61,1919.77 2193.78,2206.57 2185.48,2483.23Z"/>
        </g>
        <path d="M1321.15,2154.25C1320.92,2145.57 1327.79,2138.35 1336.46,2138.12C1345.14,2137.9 1352.37,2144.76 1352.59,2153.44C1355.05,2248.28 1353.47,2246.68 1349.45,2341.07C1349.09,2349.75 1341.75,2356.49 1333.07,2356.12C1324.4,2355.75 1317.66,2348.41 1318.03,2339.74C1321.99,2246.43 1323.57,2248.01 1321.15,2154.25Z"/>
        <path d="M583.703,2036.08C575.501,2033.23 571.154,2024.26 574,2016.06C576.846,2007.86 585.815,2003.52 594.016,2006.36C627.891,2018.12 846.616,2094.37 1039.32,2057.34C1112.21,2043.34 1161.41,2029.03 1194.41,2013.78C1223.57,2000.3 1239.02,1986.78 1246.32,1971.52C1256.49,1950.26 1251.6,1926.98 1250.18,1900.94C1249.76,1893.12 1255.16,1886.17 1262.85,1884.66C1296.08,1878.1 1320.79,1873.87 1339.93,1868.28C1356.22,1863.52 1367.95,1857.98 1377.3,1847.92C1391.04,1833.14 1399.82,1809.88 1411.48,1770.72C1413.96,1762.4 1422.72,1757.66 1431.04,1760.14C1439.36,1762.61 1444.11,1771.38 1441.63,1779.7C1428,1825.48 1416.4,1852.05 1400.34,1869.34C1387.33,1883.34 1371.43,1891.85 1348.75,1898.47C1331.61,1903.48 1310.16,1907.5 1282.42,1912.88C1284.07,1939.14 1285.28,1962.97 1274.69,1985.1C1266.84,2001.52 1252.78,2017.36 1227.26,2032.18C1193.35,2051.89 1137.34,2070.54 1045.25,2088.24C845.554,2126.61 618.808,2048.26 583.703,2036.08Z"/>
        <path d="M1806.07,2174.7C1797.48,2176 1789.46,2170.09 1788.16,2161.5C1786.86,2152.92 1792.78,2144.9 1801.36,2143.6C1874.06,2132.61 1916.85,2126.91 1952.19,2102.59C1987.67,2078.16 2015.24,2035.3 2059.11,1952.33C2063.17,1944.66 2072.69,1941.72 2080.37,1945.78C2088.04,1949.84 2090.98,1959.36 2086.92,1967.04C2039.5,2056.71 2008.38,2102.1 1970.02,2128.5C1931.51,2155.01 1885.3,2162.72 1806.07,2174.7Z"/>
        <path d="M728.979,1837.12C736.845,1840.61 743.398,1836.7 748.326,1832.15C756.255,1824.84 761.119,1815.21 762.061,1813.38C766.033,1805.66 775.525,1802.62 783.243,1806.59C790.962,1810.56 794.004,1820.05 790.032,1827.77C788.646,1830.47 781.323,1844.51 769.657,1855.28C755.313,1868.51 735.427,1876.87 712.031,1863.78C701.981,1858.15 694.459,1845.76 698.329,1826.96C700.625,1815.8 707.484,1801.32 721.808,1785C740.589,1763.59 773.096,1737.9 825.791,1711.37C833.545,1707.47 843.009,1710.59 846.913,1718.35C850.816,1726.1 847.691,1735.56 839.937,1739.47C773.165,1773.08 741.882,1803.83 731.726,1825.82C729.845,1829.89 729.17,1835.22 728.979,1837.12Z"/>
        <path d="M544.323,1737.92C537.421,1732.66 536.094,1722.78 541.36,1715.88C546.626,1708.98 556.504,1707.65 563.405,1712.91C567.662,1716.16 633.316,1762.91 634.065,1850.52C634.111,1855.83 631.477,1860.8 627.061,1863.74C622.645,1866.68 617.042,1867.2 612.161,1865.12C582.899,1852.62 578.754,1844.35 565.292,1819.23C561.192,1811.57 564.075,1802.03 571.726,1797.93C579.377,1793.83 588.919,1796.72 593.019,1804.37C594.194,1806.56 595.257,1808.57 596.259,1810.43C581.725,1764.52 547.094,1740.04 544.323,1737.92Z"/>
        <path d="M2224.82,2366.56C2244.71,2254.1 2341.76,2277.74 2355.83,2282.87C2467.86,2323.66 2443.99,2481.41 2442.74,2497.76C2410.88,2430.55 2408.55,2431.97 2387.61,2411.1C2391.62,2499.16 2384.44,2517.39 2373.66,2554.39C2360.2,2492.65 2367.01,2490.16 2335.15,2435.66C2317.68,2504.56 2314.56,2513.09 2278.94,2577.08C2281.2,2521.74 2281.4,2521.24 2258.46,2462.79C2233.14,2398.27 2232.62,2398.66 2227.81,2366.5" style="fill:rgb(249,124,59);"/>
        <path d="M2213.59,2377.57C2210.16,2374.06 2208.41,2369.01 2209.33,2363.82C2216.12,2325.46 2231.29,2301.27 2248.95,2286.01C2291.09,2249.62 2349.76,2263.91 2361.22,2268.09C2411.3,2286.33 2437.39,2325.2 2450.21,2366.79C2468.21,2425.19 2459.2,2488.7 2458.42,2498.97C2457.87,2506.08 2452.61,2511.93 2445.6,2513.23C2438.58,2514.53 2431.58,2510.94 2428.52,2504.5C2417.49,2481.22 2410.22,2466.61 2404.48,2456.48C2404.37,2509.76 2397.73,2528 2388.76,2558.79C2386.75,2565.7 2380.31,2570.36 2373.12,2570.11C2365.93,2569.87 2359.82,2564.77 2358.29,2557.74C2349.08,2515.49 2349.89,2502.08 2340.05,2478.94C2329.37,2517.01 2321.1,2533.69 2292.68,2584.73C2289.14,2591.1 2281.69,2594.2 2274.68,2592.22C2267.67,2590.25 2262.93,2583.72 2263.23,2576.44C2265.36,2524.18 2265.48,2523.72 2243.82,2468.54C2220.13,2408.16 2217.54,2402.66 2213.59,2377.57ZM2242.19,2360.12C2242.75,2361.39 2243.15,2362.74 2243.37,2364.18C2248.01,2395.21 2248.67,2394.78 2273.1,2457.05C2284.51,2486.11 2290.48,2501.61 2293.36,2515.97C2304.14,2492.54 2309.31,2473.57 2319.9,2431.8C2321.47,2425.61 2326.63,2420.98 2332.95,2420.09C2339.27,2419.2 2345.51,2422.21 2348.73,2427.72C2361.36,2449.33 2368.18,2463.06 2372.57,2475.34C2373.28,2459.17 2373.13,2438.93 2371.9,2411.82C2371.6,2405.34 2375.31,2399.34 2381.25,2396.72C2387.18,2394.09 2394.12,2395.38 2398.71,2399.96C2412.58,2413.78 2418.78,2418.26 2429.82,2437.3C2429.11,2418.27 2426.55,2396.81 2420.15,2376.05C2410.03,2343.23 2389.99,2312.04 2350.45,2297.64C2342.2,2294.64 2299.85,2283.62 2269.51,2309.82C2257.57,2320.13 2247.82,2336.17 2242.19,2360.12Z"/>
        <path d="M1134.38,1539.2C1229.12,1483.17 1255.82,1499.62 1352.18,1531.39C1351.3,1519.56 1345.19,1437.57 1238.37,1436.29C1161.53,1435.37 1123.74,1521.02 1118.79,1532.25"/>
        <path d="M1121.2,1547.79C1118.33,1548.24 1115.3,1547.89 1112.44,1546.63C1104.5,1543.13 1100.9,1533.84 1104.4,1525.9C1107.61,1518.62 1123.68,1482.44 1153.9,1454.82C1175.24,1435.33 1203.37,1420.14 1238.56,1420.56C1286.85,1421.14 1316.7,1436.96 1335.47,1455.81C1364.26,1484.73 1367.26,1522.02 1367.87,1530.22C1368.26,1535.46 1366.01,1540.55 1361.87,1543.79C1357.73,1547.02 1352.25,1547.98 1347.26,1546.33C1292.4,1528.24 1261.51,1514.63 1226.03,1518.72C1202.77,1521.4 1177.72,1531.84 1142.38,1552.74C1135.11,1557.04 1125.76,1554.81 1121.2,1547.79ZM1145.57,1514.8C1176.36,1498.25 1200.21,1490.03 1222.42,1487.47C1255.88,1483.61 1285.92,1492.8 1331.59,1507.97C1328.28,1498.41 1322.7,1487.57 1313.18,1478.01C1298.73,1463.5 1275.35,1452.46 1238.18,1452.02C1205,1451.62 1180.5,1470.4 1163.51,1490.01C1156.2,1498.45 1150.23,1507.12 1145.57,1514.8Z"/>
        <path d="M954.69,1477.47C955.15,1474.5 956.461,1471.66 958.564,1469.33C960.223,1467.5 964.575,1460.49 970.054,1454.14C975.312,1448.04 981.509,1442.64 987.497,1439.85L994.768,1437.51L1003.59,1437.46L1008.16,1438.72L1012.41,1440.83L1019.26,1446.82C1043.77,1475.96 1045.76,1504.34 1046.23,1511.23L1046.26,1511.75C1046.87,1517.04 1044.76,1522.3 1040.61,1525.71C1036.19,1529.34 1030.15,1530.28 1024.83,1528.17C989.49,1514.13 989.904,1513.91 952.256,1508.79C943.654,1507.62 937.621,1499.68 938.791,1491.08C939.879,1483.09 946.81,1477.31 954.69,1477.47Z"/>
        <path d="M1883.51,1866.21C1890.68,1861.32 1900.48,1863.17 1905.37,1870.34C1910.26,1877.51 1908.41,1887.3 1901.24,1892.19C1873.77,1910.94 1757.1,1980.7 1804.19,2135.33C1806.72,2143.63 1802.03,2152.43 1793.72,2154.95C1785.42,2157.48 1776.62,2152.8 1774.09,2144.49C1720.31,1967.87 1852.13,1887.62 1883.51,1866.21Z"/>
        <path d="M1630.38,1058.14C1652.15,1029.63 1748.08,893.095 2014.98,800.649C1931.85,897.711 1921.84,887.731 1875.67,947.138C1861.17,965.808 1851.87,975.163 1792.46,1084.88C1725.95,1070.07 1726.52,1071.41 1658.36,1067.75"/>
        <path d="M1642.63,1068C1637.31,1074.62 1627.62,1075.83 1620.83,1070.64C1613.93,1065.37 1612.61,1055.49 1617.88,1048.59C1640.08,1019.52 1737.7,880.043 2009.84,785.787C2016.55,783.462 2023.99,785.924 2027.98,791.794C2031.98,797.664 2031.55,805.486 2026.93,810.881C1944.11,907.583 1934.08,897.601 1888.1,956.789C1873.82,975.159 1864.74,984.411 1806.29,1092.37C1802.94,1098.55 1795.9,1101.76 1789.04,1100.23C1723.81,1085.7 1724.36,1087.05 1657.52,1083.46C1649.21,1083.01 1642.75,1076.19 1642.63,1068ZM1654.52,1052.5C1656.01,1052.12 1657.58,1051.96 1659.2,1052.05C1724.47,1055.55 1727.9,1054.57 1784.29,1066.96C1839.6,965.298 1848.99,955.848 1863.26,937.488C1900.13,890.023 1914,886.664 1960.21,838.129C1773.26,914.843 1687.16,1011.12 1654.52,1052.5Z"/>
        <path d="M1342.38,1154.14C1335.96,1162.53 1264.21,1256.34 1251.67,1250.03C1175.89,1211.88 1222.33,1066.37 1229.63,1043C1279.12,884.593 1433.66,754.443 1485.23,709.747C1383.29,918.807 1362.86,914.461 1341.46,1146.33"/>
        <path d="M1357.04,1148.46C1358.95,1153.4 1358.32,1159.19 1354.87,1163.7C1349.59,1170.6 1301.15,1233.65 1275.44,1255.31C1268.7,1260.99 1262.68,1264.25 1258.54,1265.34L1251.03,1265.95L1244.6,1264.08C1209.12,1246.22 1195.15,1208.97 1193.36,1168.09C1190.97,1113.45 1210.05,1052.93 1214.62,1038.31C1265.11,876.667 1422.3,743.47 1474.93,697.861C1480.58,692.967 1488.89,692.722 1494.82,697.276C1500.74,701.829 1502.65,709.924 1499.37,716.641C1398.68,923.13 1378.26,918.757 1357.12,1147.77C1357.1,1148 1357.07,1148.23 1357.04,1148.46ZM1326.06,1149.56C1325.75,1148.06 1325.65,1146.49 1325.8,1144.88C1344.62,940.959 1362.52,917.465 1434.56,776.028C1368.79,837.991 1279.69,935.503 1244.64,1047.69C1240.45,1061.11 1222.59,1116.58 1224.79,1166.72C1225.95,1193.33 1232.4,1218.79 1252.92,1232.58C1257.34,1228.81 1265.74,1221.44 1272.07,1214.62C1292.47,1192.61 1316.47,1161.98 1326.06,1149.56Z"/>
        <path d="M2125.08,1293.89C2185.37,1295.9 2289.61,1287.51 2422.05,1374.27C2551.03,1458.77 2576.84,1527.92 2600.73,1568.25C2490.92,1535.89 2382.99,1456.99 2207.74,1499.3C2198.34,1484.67 2167.26,1436.26 2129.84,1296.32"/>
        <path d="M2116.44,1307.04C2112.02,1304.13 2109.17,1299.05 2109.36,1293.37C2109.64,1284.69 2116.92,1277.89 2125.6,1278.17C2187.56,1280.24 2294.58,1271.96 2430.66,1361.12C2563.12,1447.89 2589.72,1518.82 2614.26,1560.24C2617.55,1565.8 2617.11,1572.81 2613.14,1577.91C2609.17,1583.01 2602.48,1585.17 2596.28,1583.34C2552.08,1570.32 2508.18,1549.83 2460.13,1532.62C2391,1507.87 2312.91,1490.09 2211.43,1514.59C2204.92,1516.17 2198.12,1513.44 2194.5,1507.8C2185.05,1493.08 2153.89,1444.98 2116.44,1307.04ZM2149.91,1310.08C2178.66,1413.11 2202.89,1460.66 2215.19,1481.46C2318.61,1459.04 2399.16,1477.38 2470.73,1503.01C2504.38,1515.06 2535.95,1528.77 2567.04,1540.31C2544.23,1501.1 2506.4,1448.34 2413.43,1387.43C2301.6,1314.17 2210.38,1310.94 2149.91,1310.08Z"/>
        <path d="M2275.08,1887.89C2417.84,1952.95 2481.69,2037.66 2573.28,2220.24C2552.67,2217.01 2514.84,2114.89 2326.2,2087.38C2289.41,2082.01 2256.87,2059.38 2273.19,1890.07"/>
        <path d="M2262.28,1878.75C2266.56,1872.74 2274.64,1870.41 2281.6,1873.58C2427.7,1940.16 2493.61,2026.34 2587.34,2213.19C2589.98,2218.46 2589.46,2224.76 2585.98,2229.52C2582.51,2234.28 2576.67,2236.69 2570.84,2235.78C2564.59,2234.8 2556.15,2229.33 2546.18,2218.45C2520.97,2190.93 2468.74,2124.06 2323.93,2102.94C2309.86,2100.89 2296.43,2096.51 2284.88,2086.05C2274,2076.2 2264.45,2060.58 2258.83,2034.42C2252.36,2004.36 2250.78,1958.6 2257.54,1888.56C2257.91,1884.68 2259.67,1881.26 2262.28,1878.75ZM2287.14,1911.02C2282.8,1965.61 2284.16,2002.62 2289.58,2027.81C2293.34,2045.27 2298.74,2056.16 2306,2062.73C2312.58,2068.69 2320.46,2070.64 2328.47,2071.81C2421.03,2085.31 2478.72,2116.17 2516.12,2145.37C2450.69,2028.43 2391.47,1962.56 2287.14,1911.02Z"/>
        <path d="M1185.08,2339.89C1179.83,2328.96 1151.26,2236.73 1040.03,2271.47C923.329,2307.91 904.365,2410.99 895.982,2432.92C966.128,2371.7 967.835,2374.95 997.055,2360.27C965.78,2428.2 964.184,2427.64 956.889,2502.29C1005.59,2443.83 1001.52,2440.37 1060.3,2391.56C1053.02,2450.27 1050.35,2449.22 1049.63,2508.43C1126.89,2412.7 1146.23,2424.53 1178.15,2325.82" style="fill:rgb(249,124,59);"/>
        <path d="M1184.48,2355.61C1156.38,2430.66 1133.91,2429.06 1061.87,2518.31C1057.66,2523.53 1050.61,2525.5 1044.3,2523.23C1038,2520.96 1033.82,2514.94 1033.9,2508.24C1034.41,2466.47 1035.86,2454.25 1039.17,2430.66C1011.84,2455.93 1005.85,2468.09 968.974,2512.36C964.555,2517.66 957.192,2519.47 950.822,2516.8C944.452,2514.14 940.563,2507.63 941.235,2500.76C946.756,2444.27 949.094,2429.37 962.599,2397.97C950.658,2406.81 933.998,2420.62 906.324,2444.77C900.882,2449.52 892.905,2449.95 886.982,2445.82C881.058,2441.68 878.711,2434.05 881.29,2427.3C890.203,2403.99 911.264,2295.2 1035.34,2256.45C1085.75,2240.71 1121.11,2248.8 1145.86,2263.99C1182.32,2286.37 1195.76,2325.79 1199.26,2333.1C1203.01,2340.92 1199.7,2350.33 1191.88,2354.08C1189.49,2355.22 1186.95,2355.71 1184.48,2355.61ZM1161.54,2326C1155.2,2314.37 1145.15,2300.47 1129.4,2290.8C1110.46,2279.18 1083.3,2274.43 1044.72,2286.48C981.474,2306.23 949.172,2347.14 931.658,2382.09C961.204,2358.39 968.202,2357.16 989.996,2346.22C995.967,2343.22 1003.18,2344.32 1007.99,2348.96C1012.79,2353.61 1014.14,2360.78 1011.34,2366.85C991.563,2409.81 984.066,2424.37 979.265,2449.59C998.162,2425.94 1009.13,2413.61 1050.26,2379.46C1055.22,2375.34 1062.19,2374.66 1067.85,2377.76C1073.51,2380.86 1076.71,2387.09 1075.91,2393.49C1071.27,2430.89 1068.52,2443.68 1066.96,2463.81C1117.51,2407.63 1135.85,2403.31 1161.54,2326Z"/>
        <path d="M2194.53,3497.24C2186.05,3499.14 2177.63,3493.81 2175.73,3485.34C2173.83,3476.87 2179.16,3468.45 2187.63,3466.55C2614.39,3370.63 2694.47,2979.96 2710.4,2859.54C2711.54,2850.93 2719.45,2844.87 2728.05,2846.01C2736.66,2847.14 2742.72,2855.06 2741.59,2863.66C2724.94,2989.5 2640.46,3397.01 2194.53,3497.24Z"/>
        <path d="M739.442,2919.62C738.49,2910.99 744.723,2903.21 753.352,2902.26C761.981,2901.31 769.759,2907.54 770.71,2916.17C784.005,3036.76 805.787,3132.36 866.365,3222C927.369,3312.26 1027.36,3396.31 1195.64,3494.13C1203.14,3498.49 1205.69,3508.13 1201.33,3515.63C1196.97,3523.14 1187.33,3525.69 1179.83,3521.33C1006.03,3420.29 903.305,3332.84 840.302,3239.61C776.873,3145.76 753.362,3045.88 739.442,2919.62Z"/>
    </g>
</svg>
